<?xml version="1.0" encoding="UTF-8"?>
<svg version="1.1" xmlns="http://www.w3.org/2000/svg" width="512" height="512">
<path d="M0 0 C1.11158478 -0.00524185 2.22316956 -0.0104837 3.36843872 -0.0158844 C5.70639211 -0.02227236 8.04437777 -0.02100975 10.38232422 -0.01245117 C13.92865144 -0.00394621 17.47336279 -0.03274262 21.01953125 -0.06445312 C23.30468702 -0.06606573 25.58984561 -0.06548647 27.875 -0.0625 C28.91913055 -0.07373398 29.96326111 -0.08496796 31.03903198 -0.09654236 C45.98006472 0.04252072 57.23650334 6.2226312 67.59765625 16.66015625 C69.0703125 18.43359375 69.0703125 18.43359375 70.33125305 21.0032196 C71.83076493 23.64399264 71.83076493 23.64399264 74.48112488 24.0728302 C75.43376724 24.07949203 76.38640961 24.08615387 77.36791992 24.09301758 C78.44881393 24.11266068 79.52970795 24.13230377 80.64335632 24.15254211 C82.39190666 24.14664314 82.39190666 24.14664314 84.17578125 24.140625 C85.37012283 24.15574631 86.56446442 24.17086761 87.79499817 24.18644714 C91.6161258 24.22949379 95.43646605 24.23817908 99.2578125 24.24609375 C101.84572431 24.26922466 104.43361721 24.29458703 107.02148438 24.32226562 C113.37110107 24.38528583 119.72040796 24.42008524 126.0703125 24.43359375 C126.52277344 23.49084595 126.52277344 23.49084595 126.984375 22.52905273 C130.46783503 15.80725925 138.39557282 12.23989134 145.0703125 9.43359375 C147.83586148 8.62734143 150.32879867 8.29681124 153.20532227 8.2565918 C154.41291954 8.23733894 154.41291954 8.23733894 155.64491272 8.21769714 C156.50845871 8.21031021 157.3720047 8.20292328 158.26171875 8.1953125 C159.16220444 8.18724075 160.06269012 8.17916901 160.99046326 8.17085266 C162.89767547 8.1570334 164.80491218 8.14630161 166.7121582 8.13842773 C168.64680314 8.12694568 170.58141735 8.10655421 172.51586914 8.0769043 C187.60884919 7.84573775 199.60801289 8.49132285 211.0703125 19.43359375 C219.87882203 28.66072552 222.69605551 38.28403699 222.54101562 50.79833984 C222.07280778 62.62556882 217.521943 71.27466482 209.00390625 79.40625 C200.54522968 86.53332811 193.08981898 88.43359375 182.0703125 88.43359375 C182.0703125 96.35359375 182.0703125 104.27359375 182.0703125 112.43359375 C189.0409268 112.27607286 189.0409268 112.27607286 196.01025391 112.07324219 C201.86204376 112.00668358 205.58908737 112.26950147 210.0703125 116.43359375 C214.50235374 121.69339734 214.65989291 125.85879888 214.6015625 132.43359375 C214.6053894 133.3875 214.60921631 134.34140625 214.61315918 135.32421875 C214.61587286 137.3346462 214.60854987 139.34510928 214.59179688 141.35546875 C214.57037959 144.42398162 214.59161716 147.49015327 214.6171875 150.55859375 C214.61454413 152.51693223 214.60941895 154.47526925 214.6015625 156.43359375 C214.60965942 157.34625 214.61775635 158.25890625 214.62609863 159.19921875 C214.54438982 164.77943481 213.79633885 168.01166585 210.0703125 172.43359375 C204.74363065 177.38331042 199.55202115 176.91184771 192.6953125 176.68359375 C189.1890625 176.60109375 185.6828125 176.51859375 182.0703125 176.43359375 C182.0703125 163.23359375 182.0703125 150.03359375 182.0703125 136.43359375 C174.1503125 136.43359375 166.2303125 136.43359375 158.0703125 136.43359375 C158.0703125 149.63359375 158.0703125 162.83359375 158.0703125 176.43359375 C154.5640625 176.51609375 151.0578125 176.59859375 147.4453125 176.68359375 C146.35138184 176.72000977 145.25745117 176.75642578 144.13037109 176.79394531 C138.27858124 176.86050392 134.55153763 176.59768603 130.0703125 172.43359375 C125.63827126 167.17379016 125.48073209 163.00838862 125.5390625 156.43359375 C125.5352356 155.4796875 125.53140869 154.52578125 125.52746582 153.54296875 C125.52475214 151.5325413 125.53207513 149.52207822 125.54882812 147.51171875 C125.57024541 144.44320588 125.54900784 141.37703423 125.5234375 138.30859375 C125.52608087 136.35025527 125.53120605 134.39191825 125.5390625 132.43359375 C125.53096558 131.5209375 125.52286865 130.60828125 125.51452637 129.66796875 C125.59623518 124.08775269 126.34428615 120.85552165 130.0703125 116.43359375 C135.39699435 111.48387708 140.58860385 111.95533979 147.4453125 112.18359375 C152.7046875 112.30734375 152.7046875 112.30734375 158.0703125 112.43359375 C158.0703125 104.51359375 158.0703125 96.59359375 158.0703125 88.43359375 C155.1003125 88.43359375 152.1303125 88.43359375 149.0703125 88.43359375 C140.00925984 86.51408128 132.18854602 81.33572593 126.0703125 74.43359375 C126.0703125 73.77359375 126.0703125 73.11359375 126.0703125 72.43359375 C118.48916638 72.37373018 110.9098554 72.37607089 103.32861328 72.42138672 C100.7504936 72.42949096 98.17228845 72.42342505 95.59423828 72.40283203 C91.88460538 72.37567094 88.17826595 72.39969195 84.46875 72.43359375 C83.31853363 72.41417725 82.16831726 72.39476074 80.98324585 72.37475586 C75.03455654 72.36788789 75.03455654 72.36788789 70.04699707 75.19844055 C68.53537885 77.21260237 67.30119719 79.24089869 66.0703125 81.43359375 C58.92651182 89.07138065 50.33920114 94.23311761 40.0703125 96.43359375 C39.35123813 96.42915693 38.63216375 96.42472012 37.89129925 96.42014885 C29.60783872 96.47950928 25.72994623 100.45129094 20.10668945 106.12158203 C19.16728012 107.03397644 18.22787079 107.94637085 17.25999451 108.88641357 C14.69759773 111.3781973 12.16461765 113.89795921 9.63824868 116.42620707 C7.52099683 118.54083758 5.39110272 120.64251646 3.26159352 122.74479091 C-1.76524652 127.70885447 -6.76694742 132.69731244 -11.75463867 137.70068359 C-16.88654721 142.84767148 -22.06290239 147.94665643 -27.26274079 153.02492726 C-31.73851404 157.39982086 -36.18254176 161.80531359 -40.60331565 166.23577297 C-43.2385484 168.8758878 -45.8843026 171.50257147 -48.56226158 174.09939957 C-51.55100027 177.00032816 -54.47099495 179.96240975 -57.3894043 182.93408203 C-58.27496002 183.77625275 -59.16051575 184.61842346 -60.07290649 185.4861145 C-64.77640721 190.39749599 -66.57117401 193.96071374 -66.58854675 200.84753418 C-65.41006753 209.55281885 -61.01571825 214.36450616 -54.92822266 220.31005859 C-53.86243668 221.40142161 -52.79961329 222.49568434 -51.73951721 223.59257507 C-48.87207335 226.54038107 -45.96230767 229.44253197 -43.03986406 232.33570051 C-40.59393421 234.76513269 -38.17003621 237.21598003 -35.74567735 239.66690886 C-30.01975181 245.45476418 -24.25870249 251.20587418 -18.47363281 256.93457031 C-12.53000191 262.82143634 -6.64697149 268.76420207 -0.79113734 274.7383045 C4.26005294 279.88758341 9.3458826 285.00076353 14.46064341 290.08690226 C17.50566326 293.11541702 20.53668199 296.15502814 23.53525925 299.22959518 C36.74829424 314.00494301 36.74829424 314.00494301 54.24048805 321.29694557 C57.23160039 321.29032169 60.10173318 320.98240548 63.05847549 320.55408096 C72.88820286 319.96538692 82.78254118 326.51062324 90.0703125 332.43359375 C90.89273437 333.05234375 91.71515625 333.67109375 92.5625 334.30859375 C101.92337231 342.24054786 107.56358588 353.54733511 110.0703125 365.43359375 C110.15539583 367.14381087 110.18807632 368.85700893 110.18383789 370.56933594 C110.18376236 371.59009216 110.18368683 372.61084839 110.18360901 373.66253662 C110.17844772 374.75745422 110.17328644 375.85237183 110.16796875 376.98046875 C110.16584633 378.6699765 110.16584633 378.6699765 110.16368103 380.39361572 C110.15808449 383.9903021 110.1455326 387.58692619 110.1328125 391.18359375 C110.12779705 393.62239493 110.12323422 396.06119709 110.11914062 398.5 C110.1081162 404.47788583 110.09138148 410.45573534 110.0703125 416.43359375 C111.33415771 416.41989746 112.59800293 416.40620117 113.90014648 416.39208984 C121.44948646 416.31027766 128.06979305 419.62237747 133.5390625 424.73046875 C140.09359908 432.02071862 142.0703125 438.61211625 142.0703125 448.43359375 C68.1503125 448.43359375 -5.7696875 448.43359375 -81.9296875 448.43359375 C-81.9296875 438.91143298 -80.20825077 432.005212 -73.6328125 424.96484375 C-66.44433955 418.50181303 -59.42353896 416.32659337 -49.9296875 416.43359375 C-48.29237406 402.10768364 -47.18816462 387.43761071 -56.54766065 375.59590065 C-61.60027134 369.62573105 -67.23779418 364.20424768 -72.91830564 358.84072161 C-76.02885098 355.87435818 -79.05451093 352.82334219 -82.09275818 349.78329468 C-87.19431889 344.70294865 -92.3510672 339.68507709 -97.55053711 334.70507812 C-103.53703147 328.97050859 -109.44096451 323.16059316 -115.30478436 317.30080569 C-121.59510173 311.01590427 -127.93747956 304.78570713 -134.29828525 298.57223845 C-136.10974363 296.79628391 -137.91166849 295.01111623 -139.71182442 293.22371292 C-142.55183078 290.40967187 -145.42545914 287.63474742 -148.32769775 284.88498116 C-149.37918518 283.87869956 -150.41968621 282.86077309 -151.44718742 281.83001137 C-158.76034051 274.51605503 -164.24591202 272.27557985 -174.28358364 271.69363976 C-179.64082216 271.31155287 -184.0830624 269.65066694 -188.9296875 267.43359375 C-190.26386719 266.83611328 -190.26386719 266.83611328 -191.625 266.2265625 C-207.50347745 258.37779943 -217.817622 244.84689325 -223.9296875 228.43359375 C-228.2589428 214.42807309 -227.91194867 196.86916393 -221.9296875 183.43359375 C-221.56746094 182.56089844 -221.20523438 181.68820313 -220.83203125 180.7890625 C-213.9096501 165.51289258 -201.28930915 154.46423299 -185.92578125 148.2109375 C-183.27407146 147.22581496 -180.62681188 146.28600745 -177.9296875 145.43359375 C-177.01236343 145.13167366 -177.01236343 145.13167366 -176.07650757 144.82365417 C-173.45258574 144.34690809 -171.74900643 144.76655802 -169.17041016 145.4309082 C-151.39005748 149.57549621 -129.10134618 153.02606986 -112.56090546 142.99736786 C-98.98644436 133.63765611 -87.48477943 121.39639844 -76.2421875 109.43359375 C-75.45537849 108.59647984 -74.66856949 107.75936592 -73.85791779 106.89688492 C-63.94935748 96.3052134 -54.32653023 85.48086716 -44.9296875 74.43359375 C-45.40536928 73.00559294 -45.88113417 71.57761982 -46.35693359 70.1496582 C-46.62186615 69.35445267 -46.88679871 68.55924713 -47.15975952 67.73994446 C-47.80142368 65.81781327 -48.44708812 63.89701807 -49.09375 61.9765625 C-52.08253363 49.30914779 -50.93664601 34.99747576 -44.3515625 23.734375 C-33.55484897 7.46635393 -19.45233786 -0.05448023 0 0 Z " fill="#FECC05" transform="translate(257.9296875,31.56640625)"/>
<path d="M0 0 C1.11158478 -0.00524185 2.22316956 -0.0104837 3.36843872 -0.0158844 C5.70639211 -0.02227236 8.04437777 -0.02100975 10.38232422 -0.01245117 C13.92865144 -0.00394621 17.47336279 -0.03274262 21.01953125 -0.06445312 C23.30468702 -0.06606573 25.58984561 -0.06548647 27.875 -0.0625 C28.91913055 -0.07373398 29.96326111 -0.08496796 31.03903198 -0.09654236 C45.98006472 0.04252072 57.23650334 6.2226312 67.59765625 16.66015625 C69.0703125 18.43359375 69.0703125 18.43359375 70.33125305 21.0032196 C71.83076493 23.64399264 71.83076493 23.64399264 74.48112488 24.0728302 C75.43376724 24.07949203 76.38640961 24.08615387 77.36791992 24.09301758 C78.98926094 24.12248222 78.98926094 24.12248222 80.64335632 24.15254211 C82.39190666 24.14664314 82.39190666 24.14664314 84.17578125 24.140625 C85.37012283 24.15574631 86.56446442 24.17086761 87.79499817 24.18644714 C91.6161258 24.22949379 95.43646605 24.23817908 99.2578125 24.24609375 C101.84572431 24.26922466 104.43361721 24.29458703 107.02148438 24.32226562 C113.37110107 24.38528583 119.72040796 24.42008524 126.0703125 24.43359375 C126.52277344 23.49084595 126.52277344 23.49084595 126.984375 22.52905273 C130.46783503 15.80725925 138.39557282 12.23989134 145.0703125 9.43359375 C147.83586148 8.62734143 150.32879867 8.29681124 153.20532227 8.2565918 C154.41291954 8.23733894 154.41291954 8.23733894 155.64491272 8.21769714 C156.50845871 8.21031021 157.3720047 8.20292328 158.26171875 8.1953125 C159.16220444 8.18724075 160.06269012 8.17916901 160.99046326 8.17085266 C162.89767547 8.1570334 164.80491218 8.14630161 166.7121582 8.13842773 C168.64680314 8.12694568 170.58141735 8.10655421 172.51586914 8.0769043 C187.60884919 7.84573775 199.60801289 8.49132285 211.0703125 19.43359375 C219.87882203 28.66072552 222.69605551 38.28403699 222.54101562 50.79833984 C222.07280778 62.62556882 217.521943 71.27466482 209.00390625 79.40625 C200.54522968 86.53332811 193.08981898 88.43359375 182.0703125 88.43359375 C182.0703125 96.35359375 182.0703125 104.27359375 182.0703125 112.43359375 C189.0409268 112.27607286 189.0409268 112.27607286 196.01025391 112.07324219 C201.86204376 112.00668358 205.58908737 112.26950147 210.0703125 116.43359375 C214.50235374 121.69339734 214.65989291 125.85879888 214.6015625 132.43359375 C214.6053894 133.3875 214.60921631 134.34140625 214.61315918 135.32421875 C214.61587286 137.3346462 214.60854987 139.34510928 214.59179688 141.35546875 C214.57037959 144.42398162 214.59161716 147.49015327 214.6171875 150.55859375 C214.61454413 152.51693223 214.60941895 154.47526925 214.6015625 156.43359375 C214.60965942 157.34625 214.61775635 158.25890625 214.62609863 159.19921875 C214.54438982 164.77943481 213.79633885 168.01166585 210.0703125 172.43359375 C204.74363065 177.38331042 199.55202115 176.91184771 192.6953125 176.68359375 C189.1890625 176.60109375 185.6828125 176.51859375 182.0703125 176.43359375 C182.0703125 163.23359375 182.0703125 150.03359375 182.0703125 136.43359375 C174.1503125 136.43359375 166.2303125 136.43359375 158.0703125 136.43359375 C158.0703125 149.63359375 158.0703125 162.83359375 158.0703125 176.43359375 C154.5640625 176.51609375 151.0578125 176.59859375 147.4453125 176.68359375 C146.35138184 176.72000977 145.25745117 176.75642578 144.13037109 176.79394531 C138.27858124 176.86050392 134.55153763 176.59768603 130.0703125 172.43359375 C125.63827126 167.17379016 125.48073209 163.00838862 125.5390625 156.43359375 C125.5352356 155.4796875 125.53140869 154.52578125 125.52746582 153.54296875 C125.52475214 151.5325413 125.53207513 149.52207822 125.54882812 147.51171875 C125.57024541 144.44320588 125.54900784 141.37703423 125.5234375 138.30859375 C125.52608087 136.35025527 125.53120605 134.39191825 125.5390625 132.43359375 C125.53096558 131.5209375 125.52286865 130.60828125 125.51452637 129.66796875 C125.59623518 124.08775269 126.34428615 120.85552165 130.0703125 116.43359375 C135.39699435 111.48387708 140.58860385 111.95533979 147.4453125 112.18359375 C152.7046875 112.30734375 152.7046875 112.30734375 158.0703125 112.43359375 C158.0703125 104.51359375 158.0703125 96.59359375 158.0703125 88.43359375 C155.1003125 88.43359375 152.1303125 88.43359375 149.0703125 88.43359375 C140.00925984 86.51408128 132.18854602 81.33572593 126.0703125 74.43359375 C126.0703125 73.77359375 126.0703125 73.11359375 126.0703125 72.43359375 C118.48916638 72.37373018 110.9098554 72.37607089 103.32861328 72.42138672 C100.7504936 72.42949096 98.17228845 72.42342505 95.59423828 72.40283203 C91.88460538 72.37567094 88.17826595 72.39969195 84.46875 72.43359375 C83.31853363 72.41417725 82.16831726 72.39476074 80.98324585 72.37475586 C75.03455654 72.36788789 75.03455654 72.36788789 70.04699707 75.19844055 C68.53537885 77.21260237 67.30119719 79.24089869 66.0703125 81.43359375 C58.92651182 89.07138065 50.33920114 94.23311761 40.0703125 96.43359375 C38.99302226 96.42119864 38.99302226 96.42119864 37.89396858 96.40855312 C30.88629711 96.43264315 27.56780958 98.88932356 22.67036438 103.71376038 C21.7992955 104.61718674 20.92822662 105.5206131 20.03076172 106.45141602 C19.07556936 107.40915069 18.11838357 108.3649007 17.15937805 109.31881714 C14.57546605 111.90015835 12.02015017 114.50819521 9.46925116 117.12210965 C6.79360259 119.85421523 4.09225449 122.56067017 1.39358521 125.27000427 C-3.70654816 130.39805384 -8.78331539 135.5485985 -13.85198963 140.70772451 C-19.62622461 146.58273451 -25.42619321 152.43205361 -31.22841287 158.27940667 C-43.1576025 170.30254051 -55.05424552 182.35737436 -66.9296875 194.43359375 C-68.52430814 191.30224025 -69.83963092 188.14565002 -71.1171875 184.87109375 C-77.28976228 170.05330459 -86.96976013 158.01334876 -101.98583984 151.54833984 C-106.5857367 149.70410402 -111.24187843 148.03933011 -115.9296875 146.43359375 C-111.91757025 141.62276373 -107.72373027 137.08686878 -103.28173828 132.67211914 C-102.64688004 132.03711487 -102.01202179 131.4021106 -101.35792542 130.74786377 C-99.28264801 128.67327671 -97.20386349 126.60224302 -95.125 124.53125 C-93.67604045 123.08415776 -92.22730318 121.63684291 -90.77877808 120.1893158 C-86.9834544 116.39779268 -83.18513619 112.60928354 -79.38616943 108.82141113 C-75.50301591 104.94852485 -71.62272555 101.07277223 -67.7421875 97.19726562 C-60.14080767 89.60657967 -52.53625866 82.01907726 -44.9296875 74.43359375 C-45.40536928 73.00559294 -45.88113417 71.57761982 -46.35693359 70.1496582 C-46.62186615 69.35445267 -46.88679871 68.55924713 -47.15975952 67.73994446 C-47.80142368 65.81781327 -48.44708812 63.89701807 -49.09375 61.9765625 C-52.08253363 49.30914779 -50.93664601 34.99747576 -44.3515625 23.734375 C-33.55484897 7.46635393 -19.45233786 -0.05448023 0 0 Z " fill="#FECC05" transform="translate(257.9296875,31.56640625)"/>
<path d="M0 0 C1.29252182 -0.01606293 2.58504364 -0.03212585 3.91673279 -0.04867554 C5.31826099 -0.06017122 6.71979672 -0.07077836 8.12133789 -0.08056641 C8.83629488 -0.08589008 9.55125187 -0.09121376 10.28787422 -0.09669876 C14.07878669 -0.12335464 17.86966724 -0.1427459 21.66064453 -0.15722656 C24.76706805 -0.17050257 27.87282482 -0.19824673 30.97900391 -0.23925781 C34.75968787 -0.28914662 38.53977329 -0.31341538 42.32077217 -0.32045364 C43.74585083 -0.32707789 45.17092086 -0.34206229 46.59580803 -0.36634445 C61.40144464 -0.60408808 73.75293438 2.72170525 85.40649414 12.19287109 C86.22891602 12.81162109 87.05133789 13.43037109 87.89868164 14.06787109 C97.25955395 21.9998252 102.89976752 33.30661246 105.40649414 45.19287109 C105.49157747 46.90308821 105.52425796 48.61628627 105.52001953 50.32861328 C105.519944 51.34936951 105.51986847 52.37012573 105.51979065 53.42181396 C105.51462936 54.51673157 105.50946808 55.61164917 105.50415039 56.73974609 C105.50202797 58.42925385 105.50202797 58.42925385 105.49986267 60.15289307 C105.49426613 63.74957945 105.48171424 67.34620353 105.46899414 70.94287109 C105.46397869 73.38167228 105.45941587 75.82047444 105.45532227 78.25927734 C105.44429784 84.23716317 105.42756312 90.21501268 105.40649414 96.19287109 C107.30226196 96.17232666 107.30226196 96.17232666 109.23632812 96.15136719 C116.7856681 96.069555 123.40597469 99.38165481 128.87524414 104.48974609 C135.42978073 111.77999597 137.40649414 118.37139359 137.40649414 128.19287109 C63.48649414 128.19287109 -10.43350586 128.19287109 -86.59350586 128.19287109 C-86.59350586 118.67071032 -84.87206913 111.76448934 -78.29663086 104.72412109 C-71.10815791 98.26109037 -64.08735732 96.08587072 -54.59350586 96.19287109 C-54.60016769 95.61817078 -54.60682953 95.04347046 -54.61369324 94.45135498 C-54.68057981 88.41570691 -54.72552533 82.38016582 -54.75830078 76.34423828 C-54.77329438 74.09810095 -54.79369606 71.85199243 -54.81982422 69.60595703 C-54.85662517 66.35881395 -54.87332702 63.11206125 -54.88647461 59.86474609 C-54.90195847 58.87674011 -54.91744232 57.88873413 -54.93339539 56.87078857 C-54.937226 40.64023548 -49.09053159 26.46759429 -37.65991211 14.96240234 C-27.1186842 5.03582329 -14.34503999 0.1630169 0 0 Z " fill="#453B4A" transform="translate(262.593505859375,351.80712890625)"/>
<path d="M0 0 C1.20759727 -0.01925285 1.20759727 -0.01925285 2.43959045 -0.03889465 C3.30313644 -0.04628159 4.16668243 -0.05366852 5.05639648 -0.0612793 C5.95688217 -0.06935104 6.85736786 -0.07742279 7.78514099 -0.08573914 C9.6923532 -0.09955839 11.59958992 -0.11029018 13.50683594 -0.11816406 C15.44148087 -0.12964611 17.37609508 -0.15003759 19.31054688 -0.1796875 C34.40352693 -0.41085405 46.40269062 0.23473106 57.86499023 11.17700195 C66.67349977 20.40413372 69.49073325 30.02744519 69.33569336 42.54174805 C68.86748552 54.36897703 64.31662073 63.01807303 55.79858398 71.1496582 C47.33990742 78.27673631 39.88449671 80.17700195 28.86499023 80.17700195 C28.86499023 88.09700195 28.86499023 96.01700195 28.86499023 104.17700195 C35.83560453 104.01948106 35.83560453 104.01948106 42.80493164 103.81665039 C48.6567215 103.75009178 52.3837651 104.01290968 56.86499023 108.17700195 C61.29703147 113.43680555 61.45457064 117.60220708 61.39624023 124.17700195 C61.40198059 125.60786133 61.40198059 125.60786133 61.40783691 127.06762695 C61.4105506 129.0780544 61.4032276 131.08851748 61.38647461 133.09887695 C61.36505732 136.16738982 61.3862949 139.23356148 61.41186523 142.30200195 C61.40922186 144.26034043 61.40409669 146.21867745 61.39624023 148.17700195 C61.40433716 149.0896582 61.41243408 150.00231445 61.42077637 150.94262695 C61.33906755 156.52284301 60.59101659 159.75507405 56.86499023 164.17700195 C51.53830838 169.12671863 46.34669889 168.65525592 39.48999023 168.42700195 C35.98374023 168.34450195 32.47749023 168.26200195 28.86499023 168.17700195 C28.86499023 154.97700195 28.86499023 141.77700195 28.86499023 128.17700195 C20.94499023 128.17700195 13.02499023 128.17700195 4.86499023 128.17700195 C4.86499023 141.37700195 4.86499023 154.57700195 4.86499023 168.17700195 C1.35874023 168.25950195 -2.14750977 168.34200195 -5.76000977 168.42700195 C-6.85394043 168.46341797 -7.94787109 168.49983398 -9.07495117 168.53735352 C-14.92674103 168.60391212 -18.65378463 168.34109423 -23.13500977 164.17700195 C-27.567051 158.91719836 -27.72459018 154.75179682 -27.66625977 148.17700195 C-27.67008667 147.2230957 -27.67391357 146.26918945 -27.67785645 145.28637695 C-27.68057013 143.27594951 -27.67324714 141.26548643 -27.65649414 139.25512695 C-27.63507686 136.18661408 -27.65631443 133.12044243 -27.68188477 130.05200195 C-27.67924139 128.09366348 -27.67411622 126.13532645 -27.66625977 124.17700195 C-27.67435669 123.2643457 -27.68245361 122.35168945 -27.6907959 121.41137695 C-27.60908708 115.83116089 -26.86103612 112.59892985 -23.13500977 108.17700195 C-17.80832791 103.22728528 -12.61671842 103.69874799 -5.76000977 103.92700195 C-0.50063477 104.05075195 -0.50063477 104.05075195 4.86499023 104.17700195 C4.86499023 96.25700195 4.86499023 88.33700195 4.86499023 80.17700195 C1.89499023 80.17700195 -1.07500977 80.17700195 -4.13500977 80.17700195 C-13.74013725 78.14223153 -22.73854222 72.46443426 -28.13500977 64.17700195 C-34.37039938 52.81558652 -37.24343388 41.90450412 -34.44750977 29.00512695 C-30.52316541 17.42831111 -23.79116622 8.95352312 -12.94750977 3.36450195 C-8.59292328 1.24549845 -4.85214799 0.06784255 0 0 Z " fill="#55596D" transform="translate(411.135009765625,39.822998046875)"/>
<path d="M0 0 C11.17986264 9.33537352 17.08717911 21.25496643 20.5703125 35.1875 C20.5703125 51.3575 20.5703125 67.5275 20.5703125 84.1875 C-16.3896875 84.1875 -53.3496875 84.1875 -91.4296875 84.1875 C-91.4296875 20.00109843 -91.4296875 20.00109843 -74.49609375 2.95703125 C-53.86820449 -16.46806564 -22.36510552 -16.68393723 0 0 Z " fill="#555A6D" transform="translate(299.4296875,363.8125)"/>
<path d="M0 0 C2.44343273 2.43534189 4.87729966 4.87048298 7.25 7.375 C15.66168428 15.40433499 25.20343583 21.94575324 37.21777344 22.20532227 C38.03832214 22.22526749 38.85887085 22.24521271 39.70428467 22.26576233 C40.58046448 22.28247482 41.45664429 22.29918732 42.359375 22.31640625 C43.26375305 22.33718735 44.1681311 22.35796844 45.09991455 22.37937927 C47.98320055 22.4446594 50.8665761 22.50365952 53.75 22.5625 C55.70704044 22.60570571 57.66407188 22.64932065 59.62109375 22.69335938 C64.4139712 22.80031872 69.20693854 22.90164673 74 23 C69.26944145 28.68801042 64.2060954 33.93014909 58.96533203 39.14819336 C58.07688095 40.03679047 57.18842987 40.92538757 56.27305603 41.84091187 C53.85586711 44.25752678 51.43649312 46.67191301 49.01608896 49.08530498 C46.47985876 51.6152501 43.9464926 54.14805995 41.41281128 56.68055725 C36.62323711 61.46703323 31.83112136 66.2509561 27.03806961 71.03394943 C21.57776393 76.48304685 16.1203245 81.93501111 10.66311479 87.38720882 C-0.5547546 98.59464808 -11.77618817 109.79851168 -23 121 C-24.59462064 117.8686465 -25.90994342 114.71205627 -27.1875 111.4375 C-33.36007478 96.61971084 -43.04007263 84.57975501 -58.05615234 78.11474609 C-62.6560492 76.27051027 -67.31219093 74.60573636 -72 73 C-67.96115031 68.15470325 -63.73289506 63.59237001 -59.26025391 59.14672852 C-58.61564209 58.50197067 -57.97103027 57.85721283 -57.30688477 57.19291687 C-55.19914181 55.08586441 -53.08789107 52.98236526 -50.9765625 50.87890625 C-49.50518273 49.40939373 -48.0340252 47.93965865 -46.56307983 46.4697113 C-42.70857225 42.61900472 -38.85107001 38.77131193 -34.99291992 34.92425537 C-31.04944377 30.99104551 -27.10882996 27.0549702 -23.16796875 23.11914062 C-15.44809901 15.40996554 -7.72506011 7.70397377 0 0 Z " fill="#555A6D" transform="translate(214,105)"/>
<path d="M0 0 C41.69615485 -1.44623803 41.69615485 -1.44623803 56 7 C57.04929688 7.56332031 58.09859375 8.12664062 59.1796875 8.70703125 C73.60736481 17.0547524 82.59411102 30.46879517 88 46 C88.391875 46.94875 88.78375 47.8975 89.1875 48.875 C90 52 90 52 89.93588161 54.5246172 C89.86358093 61.86934951 91.61352749 65.79953994 96.71002758 71.07418883 C98.22333244 72.58059653 99.76212068 74.05771588 101.30297852 75.53588867 C102.39907915 76.6272422 103.49274701 77.72104366 104.58416748 78.81707764 C107.53727961 81.76908094 110.52285242 84.68610696 113.5155232 87.59792495 C116.6438925 90.65353349 119.7404988 93.74099506 122.84056091 96.82527161 C128.70860761 102.65405283 134.60368966 108.45465253 140.50948709 114.24515468 C147.89322123 121.48724377 155.24301557 128.76348907 162.59179688 136.04101562 C165.15934252 138.58343751 167.72709263 141.12565252 170.29515076 143.66755676 C171.22716723 144.59010843 171.22716723 144.59010843 172.17801231 145.5312975 C176.47815734 149.78579145 180.78802485 154.03027571 185.10194397 158.27079773 C186.80400975 159.94567787 188.50589983 161.62073633 190.20773315 163.29585266 C191.27917591 164.34936767 192.35151506 165.40197188 193.42478752 166.45362282 C194.88292533 167.88238913 196.33792977 169.31435119 197.79273987 170.74650574 C198.60999322 171.54855029 199.42724657 172.35059484 200.26926517 173.17694378 C202 175 202 175 202 176 C189.9612661 177.83713985 175.27065868 180.01374895 164.51461256 172.99812168 C156.99286845 167.4675194 150.5749226 160.59667549 144.20519876 153.81205201 C141.21363015 150.65876761 138.13320452 147.59436428 135.06369019 144.51725769 C129.93502977 139.35101485 124.86986253 134.12898927 119.84423828 128.86254883 C113.41169906 122.12243026 106.88130345 115.4864588 100.31523323 108.87666798 C94.63439438 103.15627431 89.00076486 97.39001405 83.37409353 91.61640334 C81.57908931 89.77851773 79.77771867 87.9470607 77.97531509 86.1164341 C75.14174921 83.23258429 72.33929949 80.32142272 69.55778885 77.38736153 C68.53921999 76.32105875 67.51150528 75.26339924 66.47379303 74.21571732 C59.18166112 66.83528442 56.61576262 61.32708243 56 51 C52.27721702 34.32687242 43.00889838 20.00695852 28.68359375 10.53125 C19.76383036 5.44166157 10.18831238 2.05396335 0 1 C0 0.67 0 0.34 0 0 Z " fill="#F99F19" transform="translate(102,176)"/>
<path d="M0 0 C8.46907283 6.33447837 13.55213579 14.72906795 16.19921875 24.91015625 C16.26109375 25.85890625 16.32296875 26.80765625 16.38671875 27.78515625 C16.43699219 28.42453125 16.48726563 29.06390625 16.5390625 29.72265625 C17.01258005 40.32944938 13.88186766 50.39794222 7.38671875 58.78515625 C-2.15861318 69.00219673 -12.255658 72.66980827 -26.05078125 73.16015625 C-37.98085046 72.92183524 -46.67508983 67.88829743 -54.86328125 59.47265625 C-62.04913023 48.43724532 -64.92642475 37.92972271 -63.61328125 24.78515625 C-61.36554915 14.41493769 -55.46546646 4.76168051 -46.61328125 -1.21484375 C-31.36581233 -9.91084998 -14.89647325 -9.51784084 0 0 Z " fill="#55596D" transform="translate(439.61328125,47.21484375)"/>
<path d="M0 0 C7.33590199 4.77843157 11.62856456 11.65837182 14 20 C15.32339593 30.72647224 12.87791124 40.16037827 6.4375 48.875 C1.39325043 54.26257545 -7.47221888 58.61745894 -14.8203125 59.23828125 C-22.21377368 59.40432825 -27.64458785 58.86641044 -34 55 C-35.04800781 54.38125 -35.04800781 54.38125 -36.1171875 53.75 C-43.49878749 48.8475034 -47.64893302 41.43178111 -50 33 C-50.88055277 24.83952844 -50.30216839 18.0496591 -46 11 C-45.57589844 10.30132812 -45.15179688 9.60265625 -44.71484375 8.8828125 C-34.17648681 -6.6752075 -15.80622083 -8.79670733 0 0 Z " fill="#565B6C" transform="translate(114,213)"/>
<path d="M0 0 C4.27059561 -0.11765973 8.54076597 -0.18773631 12.8125 -0.25 C14.00810547 -0.28351562 15.20371094 -0.31703125 16.43554688 -0.3515625 C28.65605162 -0.48475601 38.07828745 2.48305324 47 11 C55.80850953 20.22713177 58.62574301 29.85044324 58.47070312 42.36474609 C58.00249528 54.19197507 53.4516305 62.84107107 44.93359375 70.97265625 C36.47491718 78.09973436 29.01950648 80 18 80 C18 87.92 18 95.84 18 104 C10.08 104 2.16 104 -6 104 C-6 96.08 -6 88.16 -6 80 C-3.56625 79.46375 -1.1325 78.9275 1.375 78.375 C12.01219294 75.80966705 20.84157115 71.40218144 27 62 C32.45851412 51.22475135 34.81179287 40.25453319 31.80859375 28.38671875 C28.22574438 17.81125514 21.80288176 9.91625584 11.9375 4.625 C8.06969635 2.86619995 4.14680535 1.88860115 0 1 C0 0.67 0 0.34 0 0 Z " fill="#463C4B" transform="translate(422,40)"/>
<path d="M0 0 C5.54772645 3.80646925 10.10735833 9.01188853 12.140625 15.46875 C13.23458897 23.86428743 11.76689104 30.75001393 6.59765625 37.4765625 C1.92192243 42.59098073 -2.67304285 44.97912051 -9.53125 45.78125 C-15.84071442 46.06012136 -20.77724736 45.35021204 -25.859375 41.46875 C-32.49016305 35.2619555 -35.80716904 30.24098346 -36.234375 21.09375 C-36.06149574 14.36965668 -34.40452533 10.14210753 -29.765625 5.26953125 C-21.0360648 -2.83441047 -11.14510397 -5.61264228 0 0 Z " fill="#FCCB06" transform="translate(275.859375,386.53125)"/>
<path d="M0 0 C5.54772645 3.80646925 10.10735833 9.01188853 12.140625 15.46875 C13.08991485 22.75399766 12.33654393 29.33711381 8.140625 35.46875 C3.02230586 41.10181471 -1.67211232 44.97243783 -9.390625 45.7109375 C-15.77834555 46.00926511 -20.70639167 45.4043279 -25.859375 41.46875 C-32.49016305 35.2619555 -35.80716904 30.24098346 -36.234375 21.09375 C-36.06149574 14.36965668 -34.40452533 10.14210753 -29.765625 5.26953125 C-21.0360648 -2.83441047 -11.14510397 -5.61264228 0 0 Z " fill="#565B6C" transform="translate(267.859375,58.53125)"/>
<path d="M0 0 C10.56 0 21.12 0 32 0 C32.0825 4.82625 32.165 9.6525 32.25 14.625 C32.28641602 16.13658691 32.32283203 17.64817383 32.36035156 19.20556641 C32.3703418 20.40874512 32.38033203 21.61192383 32.390625 22.8515625 C32.41157227 24.07697754 32.43251953 25.30239258 32.45410156 26.56494141 C31.76195626 31.80068572 29.25719977 34.83177129 25.4609375 38.359375 C20.48384065 40.71872114 16.04879747 40.43055358 10.625 40.25 C7.11875 40.1675 3.6125 40.085 0 40 C0 26.8 0 13.6 0 0 Z " fill="#453C4B" transform="translate(440,168)"/>
<path d="M0 0 C10.56 0 21.12 0 32 0 C32 13.2 32 26.4 32 40 C28.49375 40.0825 24.9875 40.165 21.375 40.25 C20.28106934 40.28641602 19.18713867 40.32283203 18.06005859 40.36035156 C12.20826874 40.42691017 8.48122513 40.16409228 4 36 C0.42577927 31.47723294 -0.48873658 28.59108983 -0.390625 22.8515625 C-0.38063477 21.64838379 -0.37064453 20.44520508 -0.36035156 19.20556641 C-0.32393555 17.69397949 -0.28751953 16.18239258 -0.25 14.625 C-0.1675 9.79875 -0.085 4.9725 0 0 Z " fill="#453C4B" transform="translate(384,168)"/>
<path d="M0 0 C5.67476113 1.96434039 9.31400331 5.62800662 12 11 C12.59057744 16.67862925 12.29370905 21.16922672 9 26 C4.99653611 30.03627917 1.41408246 32.12458106 -4.3125 32.3125 C-8.94226662 32.25237316 -11.4369151 31.06591027 -15 28 C-19.3022759 23.23261319 -20.36282503 19.56252705 -20.28125 13.28125 C-19.69180611 8.50020514 -16.85179203 5.75038822 -13.375 2.6875 C-8.92314854 -0.47565762 -5.3540278 -0.48837416 0 0 Z " fill="#FBCA07" transform="translate(420,64)"/>
<path d="M0 0 C1.38086832 0.00078959 2.76189782 0.02892951 4.1418457 0.0793457 C4.87007034 0.08642044 5.59829498 0.09349518 6.34858704 0.1007843 C8.67264932 0.12875614 10.99429426 0.19149045 13.31762695 0.25512695 C14.89376401 0.28020664 16.46993886 0.3030204 18.04614258 0.32348633 C21.90840093 0.37859069 25.76885427 0.46487467 29.63012695 0.56762695 C23.09668551 12.19755821 13.89559767 20.23104306 0.87670898 23.98095703 C-6.48308656 25.31090053 -14.04367477 24.86800238 -21.49487305 24.75512695 C-23.23184061 24.74005249 -24.96882082 24.72636897 -26.70581055 24.71411133 C-30.92748156 24.6813252 -35.14853517 24.62969609 -39.36987305 24.56762695 C-39.36987305 24.23762695 -39.36987305 23.90762695 -39.36987305 23.56762695 C-38.55905273 23.42067383 -37.74823242 23.2737207 -36.9128418 23.12231445 C-24.15724235 20.53852597 -14.78416429 15.64724668 -6.36987305 5.56762695 C-5.99113037 4.70637207 -5.6123877 3.84511719 -5.22216797 2.95776367 C-3.36987305 0.56762695 -3.36987305 0.56762695 0 0 Z " fill="#FAA018" transform="translate(300.369873046875,103.432373046875)"/>
<path d="M0 0 C5.04958528 -0.09997656 10.09857603 -0.17198266 15.14892578 -0.21972656 C16.86159317 -0.23965999 18.57419414 -0.26681705 20.28662109 -0.30175781 C37.554634 -0.64489775 50.03231802 2.35927352 62.9375 14.5625 C65.78060254 17.36368948 67.25628206 20.42941475 69 24 C64.41041127 24.1985843 59.82334732 24.34328733 55.23046875 24.43945312 C53.6704552 24.47955298 52.11073991 24.53405278 50.55175781 24.60351562 C37.57075897 25.16718607 37.57075897 25.16718607 33.75366211 22.33081055 C32.24965632 20.28835406 31.12195526 18.26960833 30 16 C21.73650847 7.02182812 11.95100982 2.73691466 0 1 C0 0.67 0 0.34 0 0 Z " fill="#FAA018" transform="translate(261,32)"/>
</svg>